<svg width="52" height="68" viewBox="0 0 52 68" fill="none" xmlns="http://www.w3.org/2000/svg">
<path d="M50.5528 25.5662C50.5528 33.5 49.4143 37.8316 41.3204 48.7271C31.9636 61.3127 26.0044 66 26.0044 66C26.0044 66 18.6665 60.3699 10.7683 48.6471C2.87012 36.9243 1.44702 33.5 1.44702 25.5662C1.44702 12.0023 12.4316 1 25.9955 1C39.5594 1 50.5439 12.0023 50.5439 25.5662H50.5528Z" stroke="#FF6D22" stroke-width="2" stroke-miterlimit="10"/>
<path d="M25.9605 38.5963C18.2313 38.5963 12.8413 32.7349 12.8413 25.6194C12.8413 18.504 18.3024 12.5714 26.0316 12.5714C33.7608 12.5714 39.1508 18.4328 39.1508 25.5483C39.1508 32.6638 33.6897 38.5963 25.9605 38.5963ZM25.9605 16.6272C20.9619 16.6272 17.4753 20.6208 17.4753 25.5394C17.4753 30.458 21.033 34.5316 26.0316 34.5316C31.0303 34.5316 34.5169 30.538 34.5169 25.6194C34.5169 20.7009 30.9591 16.6272 25.9605 16.6272Z" stroke="#FF6D22" stroke-width="2"/>
</svg>
