<svg width="52" height="68" viewBox="0 0 52 68" fill="none" xmlns="http://www.w3.org/2000/svg">
<path d="M50.5528 25.5662C50.5528 33.5 49.4143 37.8316 41.3204 48.7271C31.9636 61.3127 26.0044 66 26.0044 66C26.0044 66 18.6665 60.3699 10.7683 48.6471C2.87012 36.9243 1.44702 33.5 1.44702 25.5662C1.44702 12.0023 12.4316 1 25.9955 1C39.5594 1 50.5439 12.0023 50.5439 25.5662H50.5528Z" stroke="#FF6D22" stroke-width="2" stroke-miterlimit="10"/>
<path d="M24.563 38.1697H15.1794V12.9987H24.563C32.4701 12.9987 37.9401 18.4242 37.9401 25.5486C37.9401 32.673 32.479 38.1697 24.563 38.1697ZM24.563 17.0278H19.5999V34.1406H24.563C29.8462 34.1406 33.2973 30.5828 33.2973 25.6198C33.2973 20.6567 29.8462 17.0278 24.563 17.0278Z" stroke="#FF6D22" stroke-width="2"/>
</svg>
