<svg width="98" height="67" viewBox="0 0 98 67" fill="none" xmlns="http://www.w3.org/2000/svg">
<path d="M68.5899 1V52.077C68.0522 53.0834 67.7076 54.2139 67.5697 55.3994H30.8714C30.3338 50.6571 26.3221 46.99 21.4418 46.99C16.5616 46.99 12.5499 50.6571 11.9984 55.3994H1.9209V1H68.5899Z" stroke="#FF6D22" stroke-width="2" stroke-miterlimit="10"/>
<path d="M68.5899 42.7861V52.0779C68.0522 53.0843 67.7076 54.2147 67.5697 55.4003H30.8714C30.3338 50.6579 26.3221 46.9909 21.4418 46.9909C16.5616 46.9909 12.5499 50.6579 11.9984 55.4003H1.9209V42.7861H68.5899Z" stroke="#FF6D22" stroke-width="2" stroke-miterlimit="10"/>
<path d="M96.0781 30.8321V55.3987H86.4417C85.8903 50.6563 81.8785 46.9893 76.9983 46.9893C73.345 46.9893 70.1743 49.0572 68.5889 52.0763V11.9453H87.0207L96.0781 30.8321Z" stroke="#FF6D22" stroke-width="2" stroke-miterlimit="10"/>
<path d="M96.0788 30.901H79.1221V11.9453H87.0214L96.0788 30.8321V30.901Z" stroke="#FF6D22" stroke-width="2" stroke-miterlimit="10"/>
<path d="M86.5118 56.5016C86.5118 61.7402 82.252 66.0001 76.9995 66.0001C71.7471 66.0001 67.501 61.7402 67.501 56.5016C67.501 56.1294 67.5285 55.7571 67.5699 55.3987C67.7078 54.2131 68.0524 53.0827 68.5901 52.0763C70.1755 49.0572 73.3462 46.9893 76.9995 46.9893C81.8797 46.9893 85.8915 50.6563 86.4429 55.3987C86.4843 55.7571 86.5118 56.1294 86.5118 56.5016Z" stroke="#FF6D22" stroke-width="2" stroke-miterlimit="10"/>
<path d="M30.9396 56.5016C30.9396 61.7402 26.6935 66.0001 21.441 66.0001C16.1886 66.0001 11.9287 61.7402 11.9287 56.5016C11.9287 56.1294 11.9563 55.7571 11.9976 55.3987C12.5491 50.6563 16.5608 46.9893 21.441 46.9893C26.3213 46.9893 30.333 50.6563 30.8706 55.3987C30.912 55.7571 30.9396 56.1294 30.9396 56.5016Z" stroke="#FF6D22" stroke-width="2" stroke-miterlimit="10"/>
<path d="M19.3174 30.9023L28.0577 22.1758L19.3863 13.5044" stroke="#FF6D22" stroke-width="2" stroke-miterlimit="10"/>
<path d="M28.0591 22.1743H1.9209" stroke="#FF6D22" stroke-width="2" stroke-miterlimit="10"/>
<path d="M45.457 30.9023L54.1973 22.1758L45.526 13.5044" stroke="#FF6D22" stroke-width="2" stroke-miterlimit="10"/>
<path d="M54.198 22.1743H38.7715" stroke="#FF6D22" stroke-width="2" stroke-miterlimit="10"/>
</svg>
