<svg width="56" height="67" viewBox="0 0 56 67" fill="none" xmlns="http://www.w3.org/2000/svg">
<path id="planned" d="M1.01111 26.5466C0.458824 26.5466 0.0111084 26.9943 0.0111084 27.5466C0.0111084 28.0989 0.458824 28.5466 1.01111 28.5466V26.5466ZM54.9889 28.5466C55.5412 28.5466 55.9889 28.0989 55.9889 27.5466C55.9889 26.9943 55.5412 26.5466 54.9889 26.5466V28.5466ZM11.7782 12.0223C11.7782 12.5745 12.2259 13.0223 12.7782 13.0223C13.3304 13.0223 13.7782 12.5745 13.7782 12.0223H11.7782ZM13.7782 1C13.7782 0.447715 13.3304 0 12.7782 0C12.2259 0 11.7782 0.447715 11.7782 1H13.7782ZM41.8655 12.0223C41.8655 12.5745 42.3132 13.0223 42.8655 13.0223C43.4178 13.0223 43.8655 12.5745 43.8655 12.0223H41.8655ZM43.8655 1C43.8655 0.447715 43.4178 0 42.8655 0C42.3132 0 41.8655 0.447715 41.8655 1H43.8655ZM13.4853 46.0877C13.0947 45.6971 12.4616 45.6971 12.0711 46.0877C11.6805 46.4782 11.6805 47.1114 12.0711 47.5019L13.4853 46.0877ZM23.6169 57.6335L22.9098 58.3406C23.3003 58.7311 23.9335 58.7311 24.324 58.3406L23.6169 57.6335ZM45.5805 37.0842C45.971 36.6936 45.971 36.0605 45.5805 35.67C45.1899 35.2794 44.5568 35.2794 44.1662 35.67L45.5805 37.0842ZM4.4333 13.0222H51.5667V11.0222H4.4333V13.0222ZM51.5667 13.0222C52.9044 13.0222 53.9889 14.1067 53.9889 15.4444H55.9889C55.9889 13.0021 54.009 11.0222 51.5667 11.0222V13.0222ZM53.9889 15.4444V62.5778H55.9889V15.4444H53.9889ZM53.9889 62.5778C53.9889 63.9156 52.9044 65 51.5667 65V67C54.009 67 55.9889 65.0201 55.9889 62.5778H53.9889ZM51.5667 65H4.4333V67H51.5667V65ZM4.4333 65C3.09556 65 2.01111 63.9156 2.01111 62.5778H0.0111084C0.0111084 65.0201 1.99099 67 4.4333 67V65ZM2.01111 62.5778V15.4444H0.0111084V62.5778H2.01111ZM2.01111 15.4444C2.01111 14.1067 3.09556 13.0222 4.4333 13.0222V11.0222C1.99099 11.0222 0.0111084 13.0021 0.0111084 15.4444H2.01111ZM1.01111 28.5466H54.9889V26.5466H1.01111V28.5466ZM13.7782 12.0223V1H11.7782V12.0223H13.7782ZM43.8655 12.0223V1H41.8655V12.0223H43.8655ZM12.0711 47.5019L22.9098 58.3406L24.324 56.9264L13.4853 46.0877L12.0711 47.5019ZM24.324 58.3406L45.5805 37.0842L44.1662 35.67L22.9098 56.9264L24.324 58.3406Z" fill="#FF6D22"/>
</svg>
