<svg width="90" height="67" viewBox="0 0 90 67" fill="none" xmlns="http://www.w3.org/2000/svg">
<g id="Group 2229">
<path id="Vector" d="M58.7739 1V56.2233H23.7254C22.9245 52.6765 19.7463 50.0196 15.9453 50.0196C12.1442 50.0196 8.96607 52.6765 8.16518 56.2233H1.58008V1H58.7739Z" stroke="#FF6D22" stroke-width="2" stroke-miterlimit="10"/>
<path id="Vector_2" d="M88.4201 33.5695V56.2233H81.3773C80.5764 52.6765 77.3983 50.0196 73.5973 50.0196C69.7962 50.0196 66.6053 52.6765 65.8045 56.2233H58.7744V16.1533H80.0552L88.4201 33.5695Z" stroke="#FF6D22" stroke-width="2" stroke-miterlimit="10"/>
<path id="Vector_3" d="M88.4195 33.6331H69.2617V16.1533H80.0547L88.4195 33.5695V33.6331Z" stroke="#FF6D22" stroke-width="2" stroke-miterlimit="10"/>
<path id="Vector_4" d="M81.5793 58.004C81.5793 62.4152 78.0071 66.0002 73.5958 66.0002C69.1846 66.0002 65.5996 62.4152 65.5996 58.004C65.5996 57.3938 65.6632 56.7963 65.803 56.2242C66.6039 52.6774 69.7948 50.0205 73.5958 50.0205C77.3969 50.0205 80.575 52.6774 81.3759 56.2242C81.5157 56.7963 81.5793 57.3938 81.5793 58.004Z" stroke="#FF6D22" stroke-width="2" stroke-miterlimit="10"/>
<path id="Vector_5" d="M23.9279 58.004C23.9279 62.4152 20.3557 66.0002 15.9444 66.0002C11.5332 66.0002 7.96094 62.4152 7.96094 58.004C7.96094 57.3938 8.0245 56.7963 8.16434 56.2242C8.96523 52.6774 12.1434 50.0205 15.9444 50.0205C19.7455 50.0205 22.9236 52.6774 23.7245 56.2242C23.8643 56.7963 23.9279 57.3938 23.9279 58.004Z" stroke="#FF6D22" stroke-width="2" stroke-miterlimit="10"/>
<path id="Vector_6" d="M47.7642 12.4043H22.8857V37.2828H47.7642V12.4043Z" stroke="#FF6D22" stroke-width="2" stroke-miterlimit="10"/>
<path id="Vector_7" d="M37.4041 12.4043H33.2344V19.9428H37.4041V12.4043Z" stroke="#FF6D22" stroke-width="2" stroke-miterlimit="10"/>
<path id="Vector_8" d="M11.4199 19.2817H22.8866" stroke="#FF6D22" stroke-width="2" stroke-miterlimit="10"/>
<path id="Vector_9" d="M15.9463 29.5264H22.8873" stroke="#FF6D22" stroke-width="2" stroke-miterlimit="10"/>
<path id="Vector_10" d="M83.3344 42.0625H88.4067V45.5712H83.3344C82.3683 45.5712 81.5801 44.783 81.5801 43.8168C81.5801 42.8507 82.3683 42.0625 83.3344 42.0625Z" stroke="#FF6D22" stroke-width="2" stroke-miterlimit="10"/>
</g>
</svg>
