<svg width="69" height="67" viewBox="0 0 69 67" fill="none" xmlns="http://www.w3.org/2000/svg">
<g id="Group 2226">
<path id="Vector" d="M39.9403 49.8286H6.88867V65.9989H39.9403V49.8286Z" stroke="#FF6D22" stroke-width="2" stroke-miterlimit="10"/>
<path id="Vector_2" d="M39.9412 66H65.6377V57.2598H39.9412V66Z" stroke="#FF6D22" stroke-width="2" stroke-miterlimit="10"/>
<path id="Vector_3" d="M33.4461 49.8283H14.4404C14.4404 47.4982 15.2826 45.3646 16.6769 43.7083C18.4175 41.6402 21.0283 40.3208 23.9479 40.3208C25.2112 40.3208 26.409 40.5641 27.5039 41.0133C30.9943 42.4169 33.4461 45.8419 33.4461 49.8283Z" stroke="#FF6D22" stroke-width="2" stroke-miterlimit="10"/>
<path id="Vector_4" d="M27.5047 41.0137C26.4098 40.5646 25.212 40.3213 23.9487 40.3213C21.0291 40.3213 18.4183 41.6407 16.6777 43.7088L4.35352 27.3607C5.4203 28.4837 6.91755 29.1761 8.58323 29.1761C11.6432 29.1761 14.1511 26.8367 14.4131 23.8516L27.5047 41.0137Z" stroke="#FF6D22" stroke-width="2" stroke-miterlimit="10"/>
<path id="Vector_5" d="M14.441 23.3272C14.441 23.505 14.441 23.6734 14.4129 23.8512C14.1509 26.8364 11.643 29.1758 8.58299 29.1758C6.9173 29.1758 5.42006 28.4833 4.35327 27.3604C3.35199 26.3123 2.73438 24.89 2.73438 23.3272C2.73438 20.679 4.48428 18.4424 6.88923 17.7219C7.42262 17.5535 7.98409 17.4692 8.57363 17.4692C11.8114 17.4692 14.4316 20.0894 14.4316 23.3272H14.441Z" stroke="#FF6D22" stroke-width="2" stroke-miterlimit="10"/>
<path id="Vector_6" d="M14.4118 23.8522C14.4305 23.6744 14.4398 23.506 14.4398 23.3282C14.4398 20.0904 11.8197 17.4702 8.58186 17.4702C7.99232 17.4702 7.43085 17.5544 6.89746 17.7229L29.6556 2.07666C28.3642 3.04987 27.5314 4.58454 27.5314 6.32509C27.5314 9.27279 29.9176 11.659 32.8559 11.659L14.4118 23.8522Z" stroke="#FF6D22" stroke-width="2" stroke-miterlimit="10"/>
<path id="Vector_7" d="M38.1814 6.32458C38.1814 9.27228 35.7951 11.6585 32.8568 11.6585C29.9185 11.6585 27.5322 9.27228 27.5322 6.32458C27.5322 4.58403 28.3651 3.04935 29.6564 2.07614C30.5454 1.40238 31.659 1 32.8568 1C34.3634 1 35.7203 1.62697 36.6935 2.63761C37.6106 3.5921 38.1814 4.89284 38.1814 6.32458Z" stroke="#FF6D22" stroke-width="2" stroke-miterlimit="10"/>
<path id="Vector_8" d="M58.114 23.8519C58.114 24.0484 58.1046 24.2449 58.0766 24.4321C56.4577 24.0765 54.6797 23.8519 52.7894 23.8519C50.8992 23.8519 49.1212 24.0765 47.5023 24.4321C47.4742 24.2449 47.4648 24.0484 47.4648 23.8519C47.4648 23.2717 47.5584 22.7103 47.7362 22.1862C48.4287 20.062 50.4219 18.5273 52.7894 18.5273H52.8643C55.7652 18.5648 58.114 20.9417 58.114 23.8519Z" stroke="#FF6D22" stroke-width="2" stroke-miterlimit="10"/>
<path id="Vector_9" d="M52.8634 18.5272H52.7885C50.421 18.5272 48.4278 20.0619 47.7353 22.1861L47.4639 22.2329L32.8564 11.6586C35.7948 11.6586 38.181 9.27236 38.181 6.32466C38.181 4.89292 37.6102 3.59219 36.6931 2.6377L52.8634 18.5272Z" stroke="#FF6D22" stroke-width="2" stroke-miterlimit="10"/>
<path id="Vector_10" d="M67.2655 28.2871V37.5607C67.2655 39.348 65.815 40.7891 64.037 40.7891H62.5398V31.8618H43.0382V40.7891H41.5409C39.763 40.7891 38.3125 39.348 38.3125 37.5607V28.2871C38.3125 28.2871 41.9807 25.6389 47.5018 24.4317C49.1207 24.0761 50.8987 23.8516 52.789 23.8516C54.6793 23.8516 56.4572 24.0761 58.0761 24.4317C63.5972 25.6389 67.2655 28.2871 67.2655 28.2871Z" stroke="#FF6D22" stroke-width="2" stroke-miterlimit="10"/>
<path id="Vector_11" d="M62.5407 31.8623H43.0391V46.1516H62.5407V31.8623Z" stroke="#FF6D22" stroke-width="2" stroke-miterlimit="10"/>
<path id="Vector_12" d="M54.6224 31.8623H50.9541V39.7977H54.6224V31.8623Z" stroke="#FF6D22" stroke-width="2" stroke-miterlimit="10"/>
</g>
</svg>
