<svg width="56" height="56" viewBox="0 0 56 56" fill="none" xmlns="http://www.w3.org/2000/svg">
<path d="M13.1262 25.9653L10 23.3663L16.7795 14L19.3908 15.8512L15.7865 25.9653L16.7795 28.1965" stroke="white" stroke-width="1.4" stroke-linecap="round" stroke-linejoin="round"/>
<path d="M38.9075 17.8378L41.8498 16.8938L45.6012 28.8101L42.2544 29.754L37.1054 19.358L28.4134 16.8938L22.8598 19.787L21.4622 24.6541C21.4622 24.6541 22.3326 25.9168 24.2329 25.7697C25.7531 25.6594 27.6288 23.6978 28.5973 21.0988C30.4362 22.9377 38.7481 31.5317 39.6063 32.4021C40.4645 33.2725 39.8392 34.572 39.4469 34.9766C38.7482 35.6754 37.6448 35.4179 37.0441 35.136C37.3628 35.7735 37.1054 36.8768 36.4434 37.3795C35.7813 37.8821 34.8006 37.5634 34.2857 37.2201C34.347 38.0783 33.9424 38.7403 33.4766 39.1448C33.0107 39.5494 31.748 39.6475 31.2085 39.1448C30.6691 38.6422 29.6638 37.7472 29.5045 37.5266C29.9213 38.4093 29.6148 39.0468 29.2225 39.4881C28.6218 40.1501 27.641 39.9662 27.1997 39.623C26.7583 39.2797 25.6795 38.0415 25.6795 38.0415" stroke="white" stroke-width="1.4" stroke-linecap="round" stroke-linejoin="round"/>
<path d="M18.0616 26.8718L14.135 30.4074C13.4356 31.0371 13.3773 32.1125 14.0047 32.8094C14.6322 33.5063 15.7079 33.5607 16.4073 32.931L20.3339 29.3954C21.0333 28.7657 21.0916 27.6902 20.4642 26.9933C19.8367 26.2965 18.761 26.242 18.0616 26.8718Z" stroke="white" stroke-width="1.4" stroke-linecap="round" stroke-linejoin="round"/>
<path d="M19.0583 30.5437L16.5438 32.8078C15.8444 33.4375 15.7861 34.5129 16.4135 35.2098C17.041 35.9067 18.1167 35.9611 18.8161 35.3314L21.3306 33.0673C22.03 32.4376 22.0883 31.3621 21.4608 30.6652C20.8333 29.9683 19.7577 29.9139 19.0583 30.5437Z" stroke="white" stroke-width="1.4" stroke-linecap="round" stroke-linejoin="round"/>
<path d="M21.3194 33.0859L18.9597 35.2106C18.2603 35.8403 18.202 36.9158 18.8295 37.6126C19.457 38.3095 20.5326 38.364 21.232 37.7342L23.5917 35.6096C24.2911 34.9798 24.3494 33.9044 23.7219 33.2075C23.0944 32.5106 22.0188 32.4562 21.3194 33.0859Z" stroke="white" stroke-width="1.4" stroke-linecap="round" stroke-linejoin="round"/>
<path d="M23.1132 36.0384L21.1818 37.7775C20.4824 38.4072 20.4241 39.4827 21.0516 40.1795C21.679 40.8764 22.7547 40.9309 23.4541 40.3011L25.3855 38.562C26.0849 37.9323 26.1432 36.8568 25.5158 36.16C24.8883 35.4631 23.8126 35.4087 23.1132 36.0384Z" stroke="white" stroke-width="1.4" stroke-linecap="round" stroke-linejoin="round"/>
<path d="M37.0581 35.1235L30.2785 28.344" stroke="white" stroke-width="1.4" stroke-linecap="round" stroke-linejoin="round"/>
<path d="M34.2987 37.2081L27.1514 30.0608" stroke="white" stroke-width="1.4" stroke-linecap="round" stroke-linejoin="round"/>
<path d="M29.5292 37.5268L25.9494 33.947" stroke="white" stroke-width="1.4" stroke-linecap="round" stroke-linejoin="round"/>
</svg>
