<svg width="56" height="56" viewBox="0 0 56 56" fill="none" xmlns="http://www.w3.org/2000/svg">
<path d="M24.9332 18H16.6537C15.7404 18 15 18.7404 15 19.6537V37.3044C15 38.2178 15.7404 38.9582 16.6537 38.9582H24.9332C25.8466 38.9582 26.587 38.2178 26.587 37.3044V19.6537C26.587 18.7404 25.8466 18 24.9332 18Z" stroke="white" stroke-width="1.4" stroke-linecap="round" stroke-linejoin="round"/>
<path d="M20.7947 25.6206C21.8334 25.6206 22.6754 24.7785 22.6754 23.7399C22.6754 22.7012 21.8334 21.8591 20.7947 21.8591C19.756 21.8591 18.9139 22.7012 18.9139 23.7399C18.9139 24.7785 19.756 25.6206 20.7947 25.6206Z" stroke="white" stroke-width="1.4" stroke-linecap="round" stroke-linejoin="round"/>
<path d="M18.9034 30.6792H22.6756" stroke="white" stroke-width="1.4" stroke-linecap="round" stroke-linejoin="round"/>
<path d="M18.9034 33.9861H22.6756" stroke="white" stroke-width="1.4" stroke-linecap="round" stroke-linejoin="round"/>
<path d="M40.3463 18H32.0668C31.1534 18 30.413 18.7404 30.413 19.6537V37.3044C30.413 38.2178 31.1534 38.9582 32.0668 38.9582H40.3463C41.2596 38.9582 42 38.2178 42 37.3044V19.6537C42 18.7404 41.2596 18 40.3463 18Z" stroke="white" stroke-width="1.4" stroke-linecap="round" stroke-linejoin="round"/>
<path d="M36.2077 25.6206C37.2464 25.6206 38.0884 24.7785 38.0884 23.7399C38.0884 22.7012 37.2464 21.8591 36.2077 21.8591C35.169 21.8591 34.327 22.7012 34.327 23.7399C34.327 24.7785 35.169 25.6206 36.2077 25.6206Z" stroke="white" stroke-width="1.4" stroke-linecap="round" stroke-linejoin="round"/>
<path d="M34.327 30.6792H38.0992" stroke="white" stroke-width="1.4" stroke-linecap="round" stroke-linejoin="round"/>
<path d="M34.327 33.9861H38.0992" stroke="white" stroke-width="1.4" stroke-linecap="round" stroke-linejoin="round"/>
</svg>
