<svg width="56" height="56" viewBox="0 0 56 56" fill="none" xmlns="http://www.w3.org/2000/svg">
<path d="M17.2478 19.4956C18.4892 19.4956 19.4956 18.4892 19.4956 17.2478C19.4956 16.0064 18.4892 15 17.2478 15C16.0064 15 15 16.0064 15 17.2478C15 18.4892 16.0064 19.4956 17.2478 19.4956Z" stroke="white" stroke-width="1.4" stroke-linecap="round" stroke-linejoin="round"/>
<path d="M25.1933 17.248H42" stroke="white" stroke-width="1.4" stroke-linecap="round" stroke-linejoin="round"/>
<path d="M17.2478 29.9853C18.4892 29.9853 19.4956 28.9789 19.4956 27.7375C19.4956 26.4961 18.4892 25.4897 17.2478 25.4897C16.0064 25.4897 15 26.4961 15 27.7375C15 28.9789 16.0064 29.9853 17.2478 29.9853Z" stroke="white" stroke-width="1.4" stroke-linecap="round" stroke-linejoin="round"/>
<path d="M25.1933 27.7378H42" stroke="white" stroke-width="1.4" stroke-linecap="round" stroke-linejoin="round"/>
<path d="M17.2478 40.4877C18.4892 40.4877 19.4956 39.4814 19.4956 38.24C19.4956 36.9986 18.4892 35.9922 17.2478 35.9922C16.0064 35.9922 15 36.9986 15 38.24C15 39.4814 16.0064 40.4877 17.2478 40.4877Z" stroke="white" stroke-width="1.4" stroke-linecap="round" stroke-linejoin="round"/>
<path d="M25.1933 38.2402H42" stroke="white" stroke-width="1.4" stroke-linecap="round" stroke-linejoin="round"/>
</svg>
