<svg width="56" height="56" viewBox="0 0 56 56" fill="none" xmlns="http://www.w3.org/2000/svg">
<path d="M37.109 21.8145H41.9996" stroke="white" stroke-width="1.4" stroke-miterlimit="10" stroke-linecap="round"/>
<path d="M15 21.8145H29.3202" stroke="white" stroke-width="1.4" stroke-miterlimit="10" stroke-linecap="round"/>
<path d="M33.2089 25.7994C35.3627 25.7994 37.1086 24.0534 37.1086 21.8997C37.1086 19.746 35.3627 18 33.2089 18C31.0552 18 29.3092 19.746 29.3092 21.8997C29.3092 24.0534 31.0552 25.7994 33.2089 25.7994Z" stroke="white" stroke-width="1.4" stroke-miterlimit="10" stroke-linecap="round"/>
<path d="M19.8906 33.866H15" stroke="white" stroke-width="1.4" stroke-miterlimit="10" stroke-linecap="round"/>
<path d="M42 33.866H27.6798" stroke="white" stroke-width="1.4" stroke-miterlimit="10" stroke-linecap="round"/>
<path d="M23.7901 37.68C25.9439 37.68 27.6898 35.9341 27.6898 33.7803C27.6898 31.6266 25.9439 29.8806 23.7901 29.8806C21.6364 29.8806 19.8904 31.6266 19.8904 33.7803C19.8904 35.9341 21.6364 37.68 23.7901 37.68Z" stroke="white" stroke-width="1.4" stroke-miterlimit="10" stroke-linecap="round"/>
</svg>
